<?xml version="1.0" encoding="UTF-8"?>
<svg width="800" height="700" viewBox="0 0 800 700" fill="none" xmlns="http://www.w3.org/2000/svg">
  <rect width="800" height="700" rx="60" fill="#f8fafc"/>
  <rect x="60" y="60" width="680" height="580" rx="40" fill="#ffffff" stroke="#e2e8f0" stroke-width="2"/>
  <circle cx="220" cy="210" r="80" fill="#ffe7c3"/>
  <circle cx="220" cy="195" r="46" fill="#fff2d6"/>
  <circle cx="240" cy="195" r="16" fill="#111827"/>
  <circle cx="200" cy="195" r="16" fill="#111827"/>
  <path d="M180 245C180 245 195 280 220 280C245 280 260 245 260 245" stroke="#111827" stroke-width="14" stroke-linecap="round"/>
  <path d="M170 250C170 250 155 240 150 220C150 190 180 160 220 160C260 160 290 190 290 220C285 240 260 250 260 250" fill="#ffe7c3"/>
  <path d="M170 250C170 250 170 300 220 320C270 300 270 250 270 250" fill="#fcd29c"/>
  <path d="M170 250L120 260C100 270 90 290 96 310C104 340 135 360 176 360" fill="#fed7aa"/>
  <path d="M270 250L320 260C340 270 350 290 344 310C336 340 305 360 264 360" fill="#fed7aa"/>
  <rect x="180" y="385" width="250" height="30" rx="15" fill="#1f2937"/>
  <rect x="150" y="430" width="320" height="70" rx="35" fill="#dbeafe"/>
  <rect x="210" y="450" width="100" height="18" rx="9" fill="#2563eb"/>
  <rect x="360" y="450" width="80" height="18" rx="9" fill="#60a5fa"/>
  <rect x="140" y="520" width="520" height="22" rx="11" fill="#e2e8f0"/>
  <rect x="140" y="560" width="520" height="22" rx="11" fill="#e2e8f0"/>
  <text x="420" y="170" fill="#111827" font-family="Inter, UI, sans-serif" font-size="40" font-weight="700" text-anchor="middle">Welcome!</text>
  <text x="420" y="225" fill="#4b5563" font-family="Inter, UI, sans-serif" font-size="24" text-anchor="middle">Your first Pillipot login</text>
  <text x="420" y="265" fill="#4b5563" font-family="Inter, UI, sans-serif" font-size="18" text-anchor="middle">is now complete.</text>
</svg>
